Coordinates
version=1
nRows=8
nColumns=36
inDegrees=yes

Units are S.I. units (second, meters, Newtons, ...)
If the header above contains a line with 'inDegrees', this indicates whether rotational values are in degrees (yes) or radians (no).

endheader
time	pelvis_tilt	pelvis_list	pelvis_rotation	pelvis_tx	pelvis_ty	pelvis_tz	hip_flexion_r	hip_adduction_r	hip_rotation_r	knee_angle_r	knee_angle_r_beta	ankle_angle_r	subtalar_angle_r	mtp_angle_r	hip_flexion_l	hip_adduction_l	hip_rotation_l	knee_angle_l	knee_angle_l_beta	ankle_angle_l	subtalar_angle_l	mtp_angle_l	lumbar_extension	lumbar_bending	lumbar_rotation	arm_flex_r	arm_add_r	arm_rot_r	elbow_flex_r	pro_sup_r	arm_flex_l	arm_add_l	arm_rot_l	elbow_flex_l	pro_sup_l
      5.05000000	     -0.52402706	     -0.99911827	      2.94517711	      0.44855134	      0.92848353	     -0.06276810	     -6.19559531	     -3.11034826	     -5.52341934	      0.88707302	      0.01548234	      4.38785180	    -21.31788652	     -7.49999987	     -5.37067002	     -8.65141899	     -1.33893433	      0.31633316	      0.00552106	      8.33266902	     -4.54924237	     -7.49999987	     -2.00008982	     -0.69338910	      1.06976718	      8.26494107	     -9.07731833	     31.16849553	     24.09795992	     69.21043299	      7.67945231	    -10.61637113	     13.38269787	     18.55324433	     41.80517119
      5.05416670	     -0.57172731	     -1.00695812	      2.94571983	      0.44926342	      0.92968755	     -0.06494296	     -6.14256360	     -3.04679248	     -5.41621628	      0.85387193	      0.01490288	      4.39337280	    -21.27174039	     -7.49999987	     -5.30553768	     -8.70476911	     -1.33486344	      0.30615237	      0.00534337	      8.29009560	     -4.53370756	     -7.49999987	     -1.98955126	     -0.75015600	      1.05328661	      8.47664294	     -9.03170445	     31.14730211	     24.15184957	     69.22083622	      7.92742760	    -10.61591889	     13.35731908	     18.63372101	     41.82110050
      5.05833330	     -0.56156294	     -1.02270870	      2.86727873	      0.44856878	      0.93168077	     -0.06472702	     -6.07317413	     -2.99830413	     -5.32036071	      0.87228712	      0.01522428	      4.69681060	    -20.75566255	     -7.49999987	     -5.27149811	     -8.74750665	     -1.25901269	      0.30755904	      0.00536792	      7.89217959	     -4.82734834	     -7.49999987	     -2.39391905	     -0.78312031	      1.21412936	      8.84931538	     -8.90297007	     30.55062331	     24.02789860	     68.73185966	      8.35890543	    -10.48308769	     12.13938836	     18.71179812	     43.30839815
      5.06250000	     -0.56335785	     -1.03448271	      2.82294350	      0.44907352	      0.93071170	     -0.06436929	     -6.03475359	     -2.96154356	     -5.02854777	      0.85847916	      0.01498329	      4.45706683	    -20.98068442	     -7.49999987	     -5.26357862	     -8.77189914	     -1.43555263	      0.30536231	      0.00532958	      7.82000717	     -4.65053192	     -7.49999987	     -2.54213428	     -0.81802254	      1.33390871	      9.06826982	     -8.89203640	     30.36021821	     24.07822845	     68.87157104	      8.66291397	    -10.37496875	     11.70268840	     18.82169810	     43.59497150
      5.06666670	     -0.79560282	     -1.02509834	      2.80796205	      0.44826074	      0.93078885	     -0.06471111	     -5.75885140	     -2.98184440	     -4.81980293	      0.84889177	      0.01481596	      4.22585867	    -21.18959686	     -7.49999987	     -4.97954575	     -8.75341148	     -1.40384043	      0.30789456	      0.00537377	      7.65192547	     -4.73727924	     -7.49999987	     -2.37904228	     -0.85514324	      1.37469536	      9.28528051	     -8.81375813	     29.95061436	     24.00155224	     68.65282874	      8.88192676	    -10.22758827	     10.94544972	     18.78221810	     44.44785844
      5.07083330	     -0.70097435	     -1.01827026	      2.72638475	      0.44539955	      0.92998977	     -0.06487548	     -5.78677101	     -3.00555842	     -4.64581436	      0.84469418	      0.01474269	      4.16722178	    -21.20539067	     -7.49999987	     -5.04309999	     -8.73060385	     -1.61022253	      0.30474833	      0.00531886	      7.62295017	     -4.65301997	     -7.49999987	     -2.85324454	     -0.85583814	      1.46087008	      9.59652999	     -8.77242250	     28.31781315	     24.18535416	     72.69178438	      9.13236534	     -9.86131198	      7.27150740	     19.15424857	     50.23059510
      5.07500000	     -0.72640316	     -0.99392386	      2.72455837	      0.44556297	      0.92791749	     -0.06589180	     -5.71266451	     -3.07179577	     -4.72995618	      0.83396417	      0.01455542	      4.22833338	    -21.02252995	     -7.49999987	     -4.95300531	     -8.67910118	     -1.48174152	      0.30967805	      0.00540490	      7.40684163	     -5.02772639	     -7.49999987	     -3.00265897	     -0.84793451	      1.50597746	      9.96542612	     -8.78483713	     28.12771026	     24.05212019	     71.90135671	      9.50741320	     -9.71031832	      6.99680654	     19.09473224	     50.77067661
      5.07916670	     -0.69535350	     -0.98153953	      2.61650866	      0.44540608	      0.92819189	     -0.06440145	     -5.69418776	     -3.09936468	     -4.47632592	      0.82545591	      0.01440692	      3.99862245	    -21.28876272	     -7.49999987	     -4.96791715	     -8.65252548	     -1.81422450	      0.31025067	      0.00541490	      7.48346146	     -4.64235768	     -7.49999987	     -3.26707635	     -0.83069869	      1.64221173	     10.27455874	     -8.90289676	     28.19302377	     24.38432408	     71.10998061	      9.75908030	     -9.65367222	      6.75476285	     19.43244512	     51.64281274
